<svg xmlns="http://www.w3.org/2000/svg" xmlns:xlink="http://www.w3.org/1999/xlink" viewBox="0 0 96 42.52"><defs><style>.cls-1{fill:none;}.cls-2{clip-path:url(#clip-path);}.cls-3,.cls-5{fill:#bc0d33;}.cls-4{fill:#fff;}.cls-5{font-size:24px;font-family:FZLTZHB--B51-0, Lantinghei TC;font-weight:700;}</style><clipPath id="clip-path"><rect class="cls-1" x="-13" width="122" height="43"/></clipPath></defs><title>hatarake-logo</title><g id="圖層_4" data-name="圖層 4"><g class="cls-2"><polygon class="cls-3" points="35.45 21.26 -30.4 -16.35 -38.53 4.59 35.45 21.26"/><polygon class="cls-3" points="35.98 18.95 -39.8 21.73 -35.66 43.82 35.98 18.95"/><polygon class="cls-3" points="37.93 7.81 -13.5 63.53 5.09 76.16 37.93 7.81"/><polygon class="cls-3" points="42 15.72 19.78 88.23 42 91.56 42 15.72"/><polygon class="cls-3" points="61.75 21.26 127.6 -16.35 135.73 4.59 61.75 21.26"/><polygon class="cls-3" points="61.21 18.95 137 21.73 132.86 43.82 61.21 18.95"/><polygon class="cls-3" points="59.27 7.81 110.7 63.53 92.11 76.16 59.27 7.81"/><polygon class="cls-3" points="55.2 15.72 77.42 88.23 55.2 91.56 55.2 15.72"/><polygon class="cls-3" points="37.93 21.56 -13.5 -34.17 5.09 -46.8 37.93 21.56"/><polygon class="cls-3" points="59.27 21.56 110.7 -34.17 92.11 -46.8 59.27 21.56"/><polygon class="cls-3" points="55.2 13.64 77.42 -58.87 55.2 -62.19 55.2 13.64"/><polygon class="cls-3" points="42 13.64 19.78 -58.87 42 -62.19 42 13.64"/></g></g><g id="kółeczko"><ellipse class="cls-4" cx="47" cy="21" rx="36" ry="16"/></g><g id="napis"><text class="cls-5" transform="translate(19.77 29.38)">働け!</text></g></svg>