<?xml version="1.0" encoding="utf-8"?>
<!-- Generator: Adobe Illustrator 14.0.0, SVG Export Plug-In  -->
<!DOCTYPE svg PUBLIC "-//W3C//DTD SVG 1.1//EN" "http://www.w3.org/Graphics/SVG/1.1/DTD/svg11.dtd" [
	<!ENTITY ns_flows "http://ns.adobe.com/Flows/1.0/">
]>
<svg version="1.1"
	 xmlns="http://www.w3.org/2000/svg" xmlns:xlink="http://www.w3.org/1999/xlink" xmlns:a="http://ns.adobe.com/AdobeSVGViewerExtensions/3.0/"
	 x="0px" y="0px" width="122px" height="45px" viewBox="0 0 122 45" enable-background="new 0 0 122 45" xml:space="preserve">
<defs>
</defs>
<rect x="43.417" y="0" fill="#FFFFFF" width="78.777" height="45.027"/>
<rect fill="#FFD364" width="43.417" height="45.028"/>
<g>
	<path fill="#175EBA" d="M47.364,37.201c2.592-0.144,2.952-0.648,2.952-3.528V14.416h4.823v19.905c0,2.628-0.756,6.624-5.579,6.624
		c-0.792,0-1.764-0.108-2.376-0.288L47.364,37.201z M50.315,6.424h4.823v4.607h-4.823V6.424z"/>
	<path fill="#175EBA" d="M68.71,13.983c5.507,0,9.719,3.708,9.719,9.827c0,5.328-3.563,9.575-9.719,9.575
		c-6.119,0-9.683-4.248-9.683-9.575C59.027,17.691,63.239,13.983,68.71,13.983z M68.71,29.642c3.708,0,4.68-3.312,4.68-6.407
		c0-2.844-1.512-5.507-4.68-5.507c-3.131,0-4.644,2.736-4.644,5.507C64.066,26.294,65.039,29.642,68.71,29.642z"/>
	<path fill="#175EBA" d="M82.211,5.957h4.823v10.834h0.072c1.332-1.764,3.024-2.808,5.543-2.808c5.688,0,7.775,4.536,7.775,9.647
		c0,5.075-2.087,9.755-7.775,9.755c-2.052,0-4.284-0.72-5.688-2.7h-0.072v2.268h-4.679V5.957z M91.318,29.642
		c3.168,0,4.068-3.456,4.068-6.011c0-2.484-0.864-5.903-3.996-5.903c-3.096,0-4.319,3.312-4.319,5.903
		C87.071,26.258,88.114,29.642,91.318,29.642z"/>
	<path fill="#175EBA" d="M115.222,18.303c-1.476-0.504-2.556-0.792-4.32-0.792c-1.296,0-2.843,0.468-2.843,2.052
		c0,2.952,8.387,1.08,8.387,7.775c0,4.319-3.852,6.047-7.775,6.047c-1.836,0-3.708-0.324-5.472-0.792l0.288-3.959
		c1.512,0.756,3.096,1.224,4.751,1.224c1.224,0,3.167-0.468,3.167-2.268c0-3.636-8.387-1.152-8.387-7.847
		c0-3.996,3.492-5.759,7.271-5.759c2.268,0,3.744,0.36,5.256,0.684L115.222,18.303z"/>
</g>
<g>
	<path fill="#175EBA" d="M9.113,6.424h4.823v4.607H9.113V6.424z M9.113,14.416h4.823v18.538H9.113V14.416z"/>
	<path fill="#175EBA" d="M19.013,14.416h4.571v2.52h0.072c1.512-2.124,3.563-2.952,6.083-2.952c4.391,0,6.299,3.096,6.299,7.271
		v11.699h-4.824v-9.899c0-2.268-0.036-5.327-3.131-5.327c-3.492,0-4.248,3.779-4.248,6.155v9.071h-4.823V14.416z"/>
</g>
</svg>
