<?xml version="1.0" encoding="utf-8"?>
<!-- Generator: Adobe Illustrator 14.0.0, SVG Export Plug-In  -->
<!DOCTYPE svg PUBLIC "-//W3C//DTD SVG 1.1//EN" "http://www.w3.org/Graphics/SVG/1.1/DTD/svg11.dtd" [
	<!ENTITY ns_flows "http://ns.adobe.com/Flows/1.0/">
]>
<svg version="1.1"
	 xmlns="http://www.w3.org/2000/svg" xmlns:xlink="http://www.w3.org/1999/xlink" xmlns:a="http://ns.adobe.com/AdobeSVGViewerExtensions/3.0/"
	 x="0px" y="0px" width="110px" height="110px" viewBox="-7.4 -10.9 110 110" enable-background="new -7.4 -10.9 110 110"
	 xml:space="preserve">
<defs>
</defs>
<path fill="#175EBA" d="M88.9,74.6c-1.9-3.2-5.7-6.1-9.1-7.1c0,0-6.3-1.4-13.4-2.8l0,0l-4.2-6c0,0-0.6,0-1.3,0l0-5.8
	c1.4-1.6,2.2-3.1,2.6-3.9c0.5-1,0.9-2.6,1.3-4.8l0,0c0.1-0.2,0.1-0.6,0.2-1c2.1-0.2,4.1-2.6,4.8-5.9c0.4-1.7,0.3-3.5-0.2-4.9
	c-0.5-1.5-1.5-2.5-2.7-2.8c0,0,0,0,0,0c0.9-3.2,1.7-6.7,1.9-8.2c0.5-4.2-0.2-7.6-1.3-10.6C64.3,3.1,54.1,0,47.5,0
	c-5.9,0-15.7,1.4-19.9,10.8c-1.3,2.9-1.9,6.4-1.3,10.6c0.2,1.5,1.1,5,2,8.2c-1.2,0.3-2.1,1.3-2.6,2.8c-0.5,1.4-0.5,3.1-0.2,4.9
	c0.7,3.2,2.7,5.6,4.8,5.9c0.1,0.5,0.1,0.8,0.2,1l0,0c0.4,2.3,0.8,3.8,1.3,4.8c0.4,0.8,1.2,2.2,2.6,3.9v5.9c-0.7,0-1.3,0-1.3,0
	l-4.2,6c-7.1,1.4-13.4,2.8-13.4,2.8c-3.4,1-7.2,3.9-9.1,7.1C3.9,78.5,0,99.1,0,99.1h95.1C95.1,99.1,91.3,78.5,88.9,74.6z M66.6,30.9
	c0.7,0.2,1.3,0.8,1.7,1.9c0.4,1.2,0.4,2.7,0.1,4.2c-0.5,2.4-1.9,4.4-3.3,4.7c0.1-1.1,0.2-2.7,0.4-4.8c0.1-1.2,0.2-2.3,0.3-3.4
	c0.2-0.8,0.5-1.7,0.7-2.6C66.5,30.9,66.5,30.9,66.6,30.9z M26.7,36.9c-0.3-1.5-0.3-3,0.1-4.2c0.4-1.1,1-1.7,1.7-1.9c0,0,0,0,0,0
	c0.3,1,0.6,2,0.8,2.8c0.1,1,0.2,2.1,0.3,3.2c0.2,2.1,0.3,3.7,0.4,4.8C28.7,41.3,27.3,39.4,26.7,36.9z M31.7,43.9l-0.1-0.7
	c-0.3-2.8-1.1-13.4-1.2-14.5c0-1.4,0-2.8,0.1-4.1c0.5-2.9,1.4-4.5,1.8-5c0.9-1.1,4.1,1.3,14.7,0.5c8.2-0.7,13-4.3,14.4-2.7
	c1.4,1.6,2.3,2.7,2.8,3.9c0.5,2.2,0.6,4.7,0.6,7.4c0,1.5-0.9,11.9-1.2,14.6l-0.1,0.7c-0.4,2.1-0.7,3.6-1.2,4.5
	c-0.8,1.6-3.3,5.8-9.2,9.3c-1.6,1-3.3,1.4-5.5,1.4s-3.9-0.4-5.5-1.4c-5.9-3.5-8.4-7.7-9.2-9.3C32.5,47.5,32.1,46,31.7,43.9z
	 M41.4,58.8c1.8,1.1,3.7,1.6,6.2,1.6s4.3-0.5,6.2-1.6c2.5-1.4,4.4-3,5.8-4.5V60c-2.6,4.1-9.3,5.1-12,5.1c-2.6,0-9.3-1-12-5.1v-5.7
	C37.1,55.8,38.9,57.4,41.4,58.8z"/>
</svg>
