<?xml version="1.0" encoding="utf-8"?>
<!-- Generator: Adobe Illustrator 14.0.0, SVG Export Plug-In  -->
<!DOCTYPE svg PUBLIC "-//W3C//DTD SVG 1.1//EN" "http://www.w3.org/Graphics/SVG/1.1/DTD/svg11.dtd" [
	<!ENTITY ns_flows "http://ns.adobe.com/Flows/1.0/">
]>
<svg version="1.1"
	 xmlns="http://www.w3.org/2000/svg" xmlns:xlink="http://www.w3.org/1999/xlink" xmlns:a="http://ns.adobe.com/AdobeSVGViewerExtensions/3.0/"
	 x="0px" y="0px" width="110px" height="110px" viewBox="-11.7 -13 110 110" enable-background="new -11.7 -13 110 110"
	 xml:space="preserve">
<defs>
</defs>
<path fill="#175EBA" d="M82.4,75.3c-1.5-3-4.2-5.9-7-7.6c3.1-3,5.1-7.3,5.1-12c0-5.4-2.6-10.3-6.7-13.3c0.2-1,0.4-2,0.4-3
	c0-3.7-1.5-7-3.9-9.4c0.7-1.3,1.1-2.9,1.1-4.5c0-4.5-3.1-8.3-7.2-9.4c-0.5-1.9-1.2-3.8-2.1-5.8C58.2,2.4,49.9,0,43.5,0
	S28.7,2.4,24.9,10.4c-1,2.1-1.7,4.2-2.2,6.2c-3.5,1.5-5.9,4.9-5.9,8.9c0,1.1,0.2,2.1,0.5,3.1c-3.4,1.9-5.7,5.5-5.7,9.7
	c0,1.8,0.4,3.5,1.2,5c-3.2,2.9-5.3,7.1-5.3,11.8c0,4.7,2,8.9,5.3,11.8c-3.3,1.5-6.7,4.8-8.6,8.4C2.7,78.3,0.9,90.4,0,97h86.6
	C85.7,90.4,83.9,78.3,82.4,75.3z M53.7,63.9L43.4,85.3L33.2,63.9V52.7c1.4,1.6,3.1,3.1,5.1,4.5c2.3,1.5,4.2,1.8,5.2,1.8
	c1,0,2.9-0.2,5.2-1.8c2-1.3,3.7-2.9,5.1-4.5V63.9z M57.5,44.7c-0.8,1.9-3.9,7.5-9.6,11.4c-2,1.3-3.6,1.5-4.4,1.5S41,57.4,39,56.1
	c-5.7-3.9-8.9-9.6-9.6-11.4c-1.6-3.9-1.6-15.7-1.6-19.2c0-0.7,0-1.3,0.1-2c1.5-2.1,4.7-2.6,5.6-7.3c0,0,0.4,4.6,9.1,8
	c6.4,2.5,13,1.6,16.6,0.7c0,0.2,0,0.4,0,0.6C59.2,29,59.1,40.7,57.5,44.7z"/>
</svg>
