<?xml version="1.0" encoding="UTF-8" standalone="no"?>
<svg
   xmlns:dc="http://purl.org/dc/elements/1.1/"
   xmlns:cc="http://creativecommons.org/ns#"
   xmlns:rdf="http://www.w3.org/1999/02/22-rdf-syntax-ns#"
   xmlns:svg="http://www.w3.org/2000/svg"
   xmlns="http://www.w3.org/2000/svg"
   viewBox="0 0 234.3311 157.74159"
   height="41.735798mm"
   width="62.000103mm"
   xml:space="preserve"
   id="svg3699"
   version="1.1"><metadata
     id="metadata3705"><rdf:RDF><cc:Work
         rdf:about=""><dc:format>image/svg+xml</dc:format><dc:type
           rdf:resource="http://purl.org/dc/dcmitype/StillImage" /><dc:title></dc:title></cc:Work></rdf:RDF></metadata><defs
     id="defs3703" /><g
     transform="matrix(1.3333333,0,0,-1.3333333,-11.684893,208.13066)"
     id="g3707"><path
       d="M 181.526,37.7918 H 8.76367 V 156.098 H 184.512 V 153.112 40.7777 37.7918 h -2.986"
       style="fill:#15569c;fill-opacity:1;fill-rule:nonzero;stroke:none;stroke-width:0.1"
       id="path3713" /><path
       d="M 181.526,40.7777 H 11.75 V 153.112 H 181.526 V 40.7777"
       style="fill:#ffffff;fill-opacity:1;fill-rule:evenodd;stroke:none;stroke-width:0.1"
       id="path3715" /><path
       d="m 73.1109,78.7012 11.0262,36.3558 h 9.8375 L 82.948,78.7012 h -9.8371"
       style="fill:#15569c;fill-opacity:1;fill-rule:evenodd;stroke:none;stroke-width:0.1"
       id="path3717" /><path
       d="M 68.7125,115.047 59.8629,99.6355 C 57.6105,95.5992 56.293,93.5602 55.6598,91.0098 H 55.525 c 0.157,3.2336 -0.2941,7.2035 -0.3359,9.4472 l -0.9782,14.59 H 37.6504 l -0.1695,-0.978 c 4.2539,0 6.7769,-2.137 7.4714,-6.51 L 48.1797,78.7012 H 58.3723 L 78.9809,115.047 H 68.7125"
       style="fill:#15569c;fill-opacity:1;fill-rule:evenodd;stroke:none;stroke-width:0.1"
       id="path3719" /><path
       d="m 145.22,78.7012 -0.272,5.407 -12.284,0.0098 -2.513,-5.4168 H 119.47 l 19.367,36.2868 h 13.11 l 3.28,-36.2868 z m -1.129,21.4448 c -0.11,2.687 -0.201,6.334 -0.018,8.541 h -0.145 c -0.599,-1.805 -3.171,-7.224 -4.302,-9.8901 l -3.66,-7.9688 h 8.625 l -0.5,9.3179"
       style="fill:#15569c;fill-opacity:1;fill-rule:evenodd;stroke:none;stroke-width:0.1"
       id="path3721" /><path
       d="m 104.303,77.6688 c -6.9456,0 -11.555,2.2027 -14.8452,4.1671 l 4.686,7.1571 c 2.9542,-1.6528 5.2738,-3.5594 10.6112,-3.5594 1.716,0 3.369,0.4461 4.309,2.0723 1.368,2.3648 -0.316,3.6367 -4.159,5.8129 l -1.898,1.2339 c -5.6968,3.893 -8.1609,7.5903 -5.4793,14.0443 1.7164,4.129 6.2423,7.258 13.7103,7.258 5.148,0 9.976,-2.227 12.79,-4.403 l -5.388,-6.319 c -2.746,2.22 -5.02,3.343 -7.625,3.343 -2.076,0 -3.654,-0.801 -4.198,-1.881 -1.025,-2.03 0.331,-3.414 3.325,-5.272 l 2.257,-1.4359 c 6.917,-4.3625 8.565,-8.9371 6.831,-13.2133 -2.982,-7.3621 -8.82,-9.005 -14.927,-9.005"
       style="fill:#15569c;fill-opacity:1;fill-rule:evenodd;stroke:none;stroke-width:0.1"
       id="path3723" /><path
       d="m 158.154,110.13 h -0.425 v 2.594 h 0.984 c 0.626,0 0.946,-0.219 0.946,-0.746 0,-0.47 -0.288,-0.664 -0.677,-0.708 l 0.726,-1.14 h -0.482 l -0.67,1.109 h -0.402 z m 0.477,1.473 c 0.32,0 0.601,0.031 0.601,0.407 0,0.313 -0.307,0.351 -0.563,0.351 h -0.515 v -0.758 z m -0.013,-2.476 c -1.346,0 -2.305,1.009 -2.305,2.344 0,1.409 1.065,2.343 2.305,2.343 1.228,0 2.293,-0.934 2.293,-2.343 0,-1.41 -1.065,-2.344 -2.293,-2.344 z m 0,4.28 c -1.014,0 -1.804,-0.796 -1.804,-1.936 0,-1.065 0.69,-1.936 1.804,-1.936 1.003,0 1.792,0.789 1.792,1.936 0,1.14 -0.789,1.936 -1.792,1.936"
       style="fill:#15569c;fill-opacity:1;fill-rule:evenodd;stroke:none;stroke-width:0.1"
       id="path3725" /><path
       d="M 177.345,67.4117 H 16.2293 V 45.8543 H 177.345 v 21.5574"
       style="fill:#f8a11a;fill-opacity:1;fill-rule:evenodd;stroke:none;stroke-width:0.1"
       id="path3727" /><path
       d="M 177.046,147.737 H 15.9305 V 126.179 H 177.046 v 21.558"
       style="fill:#15569c;fill-opacity:1;fill-rule:evenodd;stroke:none;stroke-width:0.1"
       id="path3729" /><path
       d="m 173.366,47.3875 h -0.426 v 2.5945 h 0.984 c 0.626,0 0.946,-0.2195 0.946,-0.7461 0,-0.4699 -0.288,-0.6644 -0.677,-0.7078 l 0.727,-1.1406 h -0.482 l -0.671,1.1086 h -0.401 z m 0.477,1.4727 c 0.319,0 0.601,0.0316 0.601,0.4074 0,0.3133 -0.307,0.3508 -0.564,0.3508 h -0.514 v -0.7582 z m -0.013,-2.475 c -1.347,0 -2.306,1.0089 -2.306,2.3433 0,1.4098 1.065,2.3434 2.306,2.3434 1.228,0 2.293,-0.9336 2.293,-2.3434 0,-1.4094 -1.065,-2.3433 -2.293,-2.3433 z m 0,4.2796 c -1.015,0 -1.804,-0.796 -1.804,-1.9363 0,-1.0648 0.689,-1.9355 1.804,-1.9355 1.002,0 1.791,0.789 1.791,1.9355 0,1.1403 -0.789,1.9363 -1.791,1.9363"
       style="fill:#15569c;fill-opacity:1;fill-rule:evenodd;stroke:none;stroke-width:0.1"
       id="path3731" /></g></svg>